<svg width="12" height="12" xmlns="http://www.w3.org/2000/svg"><path d="M6.80245238 8.29344264l1.26638641-1.06262437.29835375-1.69204822-.84623999-1.46573066L6 3.51945793l-1.52095255.55358146-.84623999 1.46573066.29835375 1.69204822 1.26638641 1.06262437h1.60490476zm.11010923.23917282V12H5.08743839V8.53261546L2.86817335 11.1774325 1.47004786 10.004266l2.25622309-2.68886201-3.43706935.60604806-.31692932-1.79739549 3.45673432-.60951553L.38237588 3.75556797l.91256161-1.58060306 3.00284309 1.73369226L3.10409892.62904377l1.71505482-.6242289L6 3.2491633 7.18084626.00481487l1.71505482.6242289-1.19368166 3.2796134 3.00284308-1.73369226.9125616 1.58060306-3.0466307 1.75897306 3.4567343.60951553-.3169293 1.79739549-3.43706935-.60604806L10.5299521 10.004266l-1.39812545 1.1731665-2.21926504-2.64481704z" fill="#FFF" fill-rule="evenodd"/></svg>